<svg width="21" height="23" viewBox="0 0 21 23" fill="none" xmlns="http://www.w3.org/2000/svg">
<path id="Vector" d="M4.72101 10.6991H10.3219V16.2301H4.72101M18.1631 20.6549H2.48066V8.48674H18.1631M18.1631 2.95577H17.0429V0.743378H14.8026V2.95577H5.84118V0.743378H3.60083V2.95577H2.48066C1.23727 2.95577 0.240318 3.95134 0.240318 5.16816V20.6549C0.240318 21.2416 0.476354 21.8044 0.8965 22.2193C1.31665 22.6342 1.88649 22.8673 2.48066 22.8673H18.1631C18.7572 22.8673 19.3271 22.6342 19.7472 22.2193C20.1674 21.8044 20.4034 21.2416 20.4034 20.6549V5.16816C20.4034 4.58139 20.1674 4.01866 19.7472 3.60376C19.3271 3.18886 18.7572 2.95577 18.1631 2.95577Z" fill="black"/>
</svg>
