<svg width="25" height="23" viewBox="0 0 25 23" fill="none" xmlns="http://www.w3.org/2000/svg">
<path id="Vector" d="M8.96137 11.3009C9.55506 11.4558 9.91352 12.0642 9.7567 12.6505L8.30047 17.9934C8.14365 18.5907 7.52755 18.9336 6.93386 18.7788C6.32897 18.6239 5.98172 18.0155 6.16094 17.4292L7.59476 12.0863C7.75159 11.489 8.36768 11.146 8.96137 11.3009ZM13.4421 11.3009C14.0358 11.4558 14.3942 12.0642 14.2374 12.6505L11.9186 21.2013C11.7618 21.8098 11.1457 22.1416 10.5408 21.9867C9.94712 21.8097 9.58867 21.2235 9.74549 20.6261L12.0755 12.0863C12.2323 11.489 12.8484 11.146 13.4421 11.3009ZM17.9227 11.3009C18.5164 11.4558 18.8749 12.0642 18.7181 12.6505L17.2618 17.9934C17.105 18.5907 16.4889 18.9336 15.8952 18.7788C15.2903 18.6239 14.9431 18.0155 15.1223 17.4292L16.5561 12.0863C16.713 11.489 17.3291 11.146 17.9227 11.3009ZM17.9227 9.08851V7.98232C17.9227 6.51541 17.3327 5.10859 16.2823 4.07133C15.2319 3.03407 13.8073 2.45134 12.3219 2.45134C9.52146 2.45134 7.22511 4.46462 6.78824 7.0863C6.41858 6.95355 6.01532 6.87612 5.60086 6.87612C4.70959 6.87612 3.85483 7.22576 3.22462 7.84811C2.5944 8.47047 2.24034 9.31456 2.24034 10.1947C2.24034 11.4226 2.91245 12.4956 3.9206 13.0708V13.0597C4.48069 13.3695 4.63751 14.0664 4.33506 14.5752C4.02142 15.0951 3.36051 15.2832 2.80043 14.9735V14.9845C1.12017 14.0332 0 12.2412 0 10.1947C0 8.7278 0.590089 7.32098 1.64045 6.28372C2.69082 5.24646 4.11542 4.66373 5.60086 4.66373C6.72103 2.06417 9.29742 0.238953 12.3219 0.238953C16.1641 0.238953 19.3118 3.18143 19.603 6.90931L20.1631 6.87612C21.3514 6.87612 22.4911 7.3423 23.3314 8.17211C24.1717 9.00192 24.6438 10.1274 24.6438 11.3009C24.6438 12.9602 23.7476 14.3651 22.4034 15.1283C21.8433 15.427 21.1824 15.25 20.8688 14.719C20.5664 14.1881 20.7232 13.5133 21.2833 13.2036V13.2146C21.9554 12.8385 22.4034 12.1195 22.4034 11.3009C22.4034 10.7141 22.1674 10.1514 21.7473 9.7365C21.3271 9.3216 20.7573 9.08851 20.1631 9.08851H17.9227Z" fill="black"/>
</svg>
