<svg width="12" height="24" viewBox="0 0 12 24" fill="none" xmlns="http://www.w3.org/2000/svg">
<path id="Vector" d="M9.68239 13.1593V4.30973C9.68239 3.42959 9.32834 2.5855 8.69812 1.96314C8.0679 1.34079 7.21314 0.99115 6.32187 0.99115C5.43061 0.99115 4.57585 1.34079 3.94563 1.96314C3.31541 2.5855 2.96136 3.42959 2.96136 4.30973V13.1593C2.02094 13.8558 1.32628 14.8269 0.975779 15.9349C0.625276 17.043 0.636701 18.2318 1.00843 19.3331C1.38017 20.4344 2.09336 21.3923 3.04699 22.071C4.00063 22.7498 5.14635 23.115 6.32187 23.115C7.4974 23.115 8.64312 22.7498 9.59675 22.071C10.5504 21.3923 11.2636 20.4344 11.6353 19.3331C12.007 18.2318 12.0185 17.043 11.668 15.9349C11.3175 14.8269 10.6228 13.8558 9.68239 13.1593ZM6.32187 3.20354C6.61896 3.20354 6.90388 3.32008 7.11396 3.52754C7.32403 3.73499 7.44205 4.01635 7.44205 4.30973V7.62832H5.2017V4.30973C5.2017 4.01635 5.31972 3.73499 5.52979 3.52754C5.73987 3.32008 6.02479 3.20354 6.32187 3.20354Z" fill="black"/>
</svg>
